PathFileType	4	(X/Y/Z)	G:\マイドライブ\biomec\experimentalData\240725\CJ2.trc
DataRate	CameraRate	NumFrames	NumMarkers	Units	OrigDataRate	OrigDataStartFrame	OrigNumFrames
200.00	200.00	      4	52	mm	200.00	1039	      1662
Frame#	Time	handR			wrRI			wrRO			elbRI			elbRO			shRF			shRU			shRB			handL			wrLI			wrLO			elbLI			elbLO			shLF			shLU			shLB			toeR			baRI			baRO			heelR			anRI			anRO			knRI			knRO			troR			toeL			baLI			baLO			heelL			anLI			anLO			knLI			knLO			troL			head			earR			earL			clav			c7			ribR			ribL			xiph			ASISR			ASISL			PSISR			PSISL			t8			t11			L1			L3			LS			COX			
		X1	Y1	Z1	X2	Y2	Z2	X3	Y3	Z3	X4	Y4	Z4	X5	Y5	Z5	X6	Y6	Z6	X7	Y7	Z7	X8	Y8	Z8	X9	Y9	Z9	X10	Y10	Z10	X11	Y11	Z11	X12	Y12	Z12	X13	Y13	Z13	X14	Y14	Z14	X15	Y15	Z15	X16	Y16	Z16	X17	Y17	Z17	X18	Y18	Z18	X19	Y19	Z19	X20	Y20	Z20	X21	Y21	Z21	X22	Y22	Z22	X23	Y23	Z23	X24	Y24	Z24	X25	Y25	Z25	X26	Y26	Z26	X27	Y27	Z27	X28	Y28	Z28	X29	Y29	Z29	X30	Y30	Z30	X31	Y31	Z31	X32	Y32	Z32	X33	Y33	Z33	X34	Y34	Z34	X35	Y35	Z35	X36	Y36	Z36	X37	Y37	Z37	X38	Y38	Z38	X39	Y39	Z39	X40	Y40	Z40	X41	Y41	Z41	X42	Y42	Z42	X43	Y43	Z43	X44	Y44	Z44	X45	Y45	Z45	X46	Y46	Z46	X47	Y47	Z47	X48	Y48	Z48	X49	Y49	Z49	X50	Y50	Z50	X51	Y51	Z51	X52	Y52	Z52	

1039	5.190	538.68433	755.79309	909.94025	501.69962	687.59851	897.24298	470.28555	728.66241	948.01416	436.41290	592.30530	1119.64111	497.95886	543.49469	1101.15942	703.01257	739.83661	1236.47021	667.15100	709.86572	1286.47681	603.32660	709.27283	1277.99048	543.55969	1033.60168	914.12518	492.91489	1112.98633	917.06128	491.80951	1059.19189	972.90808	407.19571	1193.24817	1128.46216	461.98944	1254.64380	1110.87012	681.55664	1060.78186	1234.44165	639.71368	1087.35681	1283.24658	565.38458	1068.89148	1264.69849	644.20349	721.71838	43.37912	571.73199	786.00586	32.14280	525.63562	668.25055	43.44739	365.72403	790.88312	45.58578	471.57346	817.00989	109.31123	435.16638	726.10126	110.58624	665.77820	793.37244	415.16098	653.53772	680.47339	415.17596	460.78079	718.05035	768.02209	672.07159	1068.72424	46.31001	605.34894	1014.50525	51.14109	567.01825	1124.55493	45.19032	387.21689	1038.31665	40.77500	497.19342	999.97430	125.10476	463.66812	1089.09521	109.09502	667.75751	995.92029	431.48358	658.76135	1113.52478	438.55289	463.05951	1068.07141	770.53741	672.03772	908.07025	1539.53821	753.08313	834.33374	1386.76636	731.99707	991.07117	1381.47644	716.77728	906.56110	1211.14514	615.96674	900.91205	1322.66785	576.55841	789.59979	934.52527	563.34619	1005.38043	930.87061	686.39142	902.27679	1049.08997	526.41846	788.73523	823.12616	523.78625	1006.27307	838.19452	364.53842	834.31287	895.27716	367.82175	956.15479	902.39258	482.34152	895.18695	1155.68164	435.15741	895.51276	1039.62732	413.07794	897.87756	983.50647	386.09393	893.91321	937.56012	354.96014	896.68304	894.67590	310.97974	899.85114	781.19012	
1040	5.195	540.98438	754.40704	916.79553	503.26251	687.79401	903.70520	471.57315	728.44806	954.32446	437.95160	592.04181	1124.57043	498.25748	543.04541	1107.23389	701.96100	739.28180	1244.85229	665.62048	708.95135	1294.58752	601.77698	708.69763	1285.42944	544.83112	1033.79028	921.19879	494.37183	1113.22815	924.57520	493.10373	1059.37854	980.07147	407.26926	1192.86902	1135.00464	461.65576	1254.36255	1118.41772	680.09320	1060.35388	1243.28369	637.82031	1086.54480	1291.84277	563.75372	1068.02222	1272.46375	644.05286	721.80054	43.49214	571.60547	786.02679	32.20104	525.62555	668.23688	43.43896	365.61667	790.80463	45.45646	471.28485	816.89612	109.37026	434.80884	726.04547	110.55782	663.21771	794.60968	417.57266	650.51184	681.47974	417.60486	462.66721	718.31927	773.87201	672.01862	1068.70459	46.43135	605.24261	1014.53558	51.16421	566.95538	1124.56091	45.22242	387.10593	1037.93469	40.39524	496.90152	1000.07098	125.28345	463.35687	1089.16772	109.13869	664.77362	996.26617	433.47607	655.45068	1113.36633	440.98901	464.72400	1067.78479	776.33862	670.97888	907.32629	1548.34253	751.88092	833.41760	1395.37683	730.33234	990.44525	1390.05652	715.80560	906.13342	1219.82996	614.50104	900.03552	1330.70886	577.94226	789.41547	942.03162	564.83270	1005.63922	938.58484	687.04712	902.20404	1057.78259	528.86792	788.71820	829.86108	526.67023	1006.18390	845.42810	366.62317	834.29413	901.53955	369.72858	955.89282	908.76306	482.28082	894.66882	1162.40479	436.24753	895.17151	1045.95239	414.44327	897.65039	989.67761	387.77222	893.96851	943.54315	356.90756	896.37164	901.07629	313.16260	899.68329	787.75757	
1041	5.200	542.31958	755.27966	923.39386	504.54404	687.58026	910.38806	473.18573	728.33856	960.48926	438.17929	591.46716	1130.15332	498.45862	542.51398	1113.24231	700.99298	738.62231	1253.33484	663.89465	708.57574	1302.50488	600.21533	708.10779	1292.83752	546.07465	1033.98853	928.18317	495.25613	1113.25378	931.56854	494.18832	1059.34326	987.00024	406.48328	1192.48438	1142.08801	461.26788	1254.16797	1125.71838	678.82672	1059.74060	1252.13708	635.90399	1085.72131	1300.10754	562.14630	1067.07361	1280.24121	643.94904	721.80579	43.65168	571.52429	786.02429	32.27974	525.60028	668.23181	43.43273	365.54922	790.71851	45.33975	471.06009	816.79730	109.43025	433.99118	725.97961	110.24999	660.16138	795.58881	419.64343	647.72186	682.80548	419.93982	464.91910	718.73578	779.43774	671.85455	1068.76257	46.48412	605.15967	1014.58765	51.20151	566.94098	1124.56812	45.22562	386.94180	1038.17896	40.64123	496.54117	1000.21954	125.46555	462.99268	1089.25806	109.21884	661.74969	996.29681	435.99097	652.28308	1113.14966	443.34634	466.40143	1067.56726	781.99707	669.98499	906.76666	1556.71509	750.77484	833.17322	1403.79419	728.96136	989.79846	1398.62549	714.77405	905.53296	1228.62427	612.84406	899.35712	1338.72815	579.95782	789.42126	949.32538	566.34259	1005.73730	946.27960	687.34491	901.93317	1066.17725	531.16772	788.91229	836.29126	527.51770	1006.49060	851.69720	368.93250	834.04633	907.69659	371.93314	955.71106	915.03491	482.08914	894.19092	1169.06506	437.19916	894.95038	1052.21472	415.86902	897.67413	995.83826	389.55161	893.75964	949.71564	359.12485	896.39740	907.25726	315.28275	899.45007	794.35986	
1042	5.205	543.84479	755.22229	930.04480	506.19281	687.35242	916.65094	474.64285	728.01068	966.68445	438.23740	590.90509	1135.83813	498.83536	542.15857	1119.20239	699.66913	737.85968	1261.54041	662.41785	707.92932	1310.22607	598.71533	707.60101	1300.05933	547.30157	1034.19385	935.08429	496.86804	1113.49011	938.97546	495.23645	1059.26563	994.17267	406.05563	1192.22437	1148.70142	461.10526	1253.82361	1133.02771	677.43982	1059.09265	1260.71533	633.94769	1084.94495	1308.51282	560.55847	1066.24695	1287.88330	643.82422	721.80280	43.83126	571.45483	786.04590	32.32109	525.58868	668.24683	43.42821	365.47610	790.64447	45.21561	470.81699	816.67480	109.51958	433.64670	725.97351	110.24957	657.04492	796.56885	421.73196	644.65381	684.05402	422.41171	466.93994	718.92035	785.21393	671.90338	1068.66138	46.68809	605.06049	1014.60895	51.25065	566.93604	1124.55469	45.26311	386.81824	1038.27185	40.71140	496.75342	1000.02905	125.45863	462.58984	1089.30664	109.22927	658.45148	996.27521	438.02243	648.80414	1112.92200	445.59607	468.19528	1067.36316	787.63007	668.70557	905.86755	1565.36780	749.34961	832.35297	1412.19348	727.12762	989.19830	1406.88171	713.94318	905.05975	1237.36206	611.40240	898.44684	1346.32861	581.36127	789.30481	956.55695	567.87213	1005.67181	953.77197	688.07727	901.83398	1074.91772	533.50934	788.77759	842.92120	530.32690	1006.81256	858.70074	371.08774	834.06769	914.02783	374.03870	955.45172	921.25702	482.04123	893.73779	1175.61694	438.17416	894.68384	1058.41394	417.26718	897.43652	1001.87103	391.39212	893.52887	955.62262	361.30063	896.06415	913.52032	317.57782	899.39899	800.68219	
